<?plantuml 1.2026.1?><svg xmlns="http://www.w3.org/2000/svg" xmlns:xlink="http://www.w3.org/1999/xlink" contentStyleType="text/css" data-diagram-type="DESCRIPTION" height="993px" preserveAspectRatio="none" style="width:902px;height:993px;background:#FFFFFF;" version="1.1" viewBox="0 0 902 993" width="902px" zoomAndPan="magnify"><defs/><g><!--cluster Syst?mov? hranice: Platforma n?boru a adaptace KZ--><g class="cluster" data-qualified-name="Syst.mov. hranice. Platforma n.boru a adaptace KZ" data-source-line="9" id="ent0004"><rect fill="none" height="648" rx="2.5" ry="2.5" style="stroke:#181818;stroke-width:1;" width="778.98" x="117.39" y="7"/><text fill="#000000" font-family="sans-serif" font-size="14" font-weight="bold" lengthAdjust="spacing" textLength="374.2676" x="319.7462" y="22.5352">Syst&#233;mov&#225; hranice: Platforma n&#225;boru a adaptace KZ</text></g><!--cluster Prezenta?n? vrstva--><g class="cluster" data-qualified-name="Syst.mov. hranice. Platforma n.boru a adaptace KZ.Prezenta.n. vrstva" data-source-line="11" id="ent0005"><rect fill="none" height="225" rx="2.5" ry="2.5" style="stroke:#181818;stroke-width:1;" width="267.23" x="141.39" y="406"/><text fill="#000000" font-family="sans-serif" font-size="14" font-weight="bold" lengthAdjust="spacing" textLength="133.335" x="208.3375" y="421.5352">Prezenta&#269;n&#237; vrstva</text></g><!--cluster Aplika?n? vrstva--><g class="cluster" data-qualified-name="Syst.mov. hranice. Platforma n.boru a adaptace KZ.Aplika.n. vrstva" data-source-line="16" id="ent0008"><rect fill="none" height="225" rx="2.5" ry="2.5" style="stroke:#181818;stroke-width:1;" width="181.47" x="436.62" y="406"/><text fill="#000000" font-family="sans-serif" font-size="14" font-weight="bold" lengthAdjust="spacing" textLength="116.3887" x="469.1607" y="421.5352">Aplika&#269;n&#237; vrstva</text></g><!--cluster Datov? vrstva--><g class="cluster" data-qualified-name="Syst.mov. hranice. Platforma n.boru a adaptace KZ.Datov. vrstva" data-source-line="21" id="ent0011"><rect fill="none" height="218" rx="2.5" ry="2.5" style="stroke:#181818;stroke-width:1;" width="216.48" x="655.89" y="413"/><text fill="#000000" font-family="sans-serif" font-size="14" font-weight="bold" lengthAdjust="spacing" textLength="99.8936" x="714.1832" y="428.5352">Datov&#225; vrstva</text></g><!--cluster AINode--><g class="cluster" data-qualified-name="Syst.mov. hranice. Platforma n.boru a adaptace KZ.AINode" data-source-line="28" id="ent0015"><polygon fill="none" points="453.66,60,463.66,50,843.79,50,843.79,252,833.79,262,453.66,262,453.66,60" style="stroke:#181818;stroke-width:1;"/><line style="stroke:#181818;stroke-width:1;" x1="833.79" x2="843.79" y1="60" y2="50"/><line style="stroke:#181818;stroke-width:1;" x1="453.66" x2="833.79" y1="60" y2="60"/><line style="stroke:#181818;stroke-width:1;" x1="833.79" x2="833.79" y1="60" y2="262"/><text fill="#000000" font-family="sans-serif" font-size="14" font-weight="bold" lengthAdjust="spacing" textLength="299.5576" x="494.9462" y="76.5352">Host vrstvy inteligentn&#237;ho zpracov&#225;n&#237; dat</text><text fill="#000000" font-family="sans-serif" font-size="14" font-weight="bold" lengthAdjust="spacing" textLength="192.4932" x="548.4784" y="93.0234">(NVIDIA A10, 24 GB VRAM)</text></g><!--cluster Observability--><g class="cluster" data-qualified-name="Syst.mov. hranice. Platforma n.boru a adaptace KZ.Observability" data-source-line="35" id="ent0020"><rect fill="none" height="103" rx="2.5" ry="2.5" style="stroke:#181818;stroke-width:1;" width="201.56" x="663.35" y="286"/><text fill="#000000" font-family="sans-serif" font-size="14" font-weight="bold" lengthAdjust="spacing" textLength="96.5918" x="715.8341" y="301.5352">Observability</text></g><!--entity MQ--><g class="entity" data-qualified-name="Syst.mov. hranice. Platforma n.boru a adaptace KZ.MQ" data-source-line="26" id="ent0014"><path d="M211.99,198.51 L338.0095,198.51 C343.0095,198.51 343.0095,219.9983 343.0095,219.9983 C343.0095,219.9983 343.0095,241.4866 338.0095,241.4866 L211.99,241.4866 C206.99,241.4866 206.99,219.9983 206.99,219.9983 C206.99,219.9983 206.99,198.51 211.99,198.51" fill="#F1F1F1" style="stroke:#181818;stroke-width:0.5;"/><path d="M338.0095,198.51 C333.0095,198.51 333.0095,219.9983 333.0095,219.9983 C333.0095,241.4866 338.0095,241.4866 338.0095,241.4866" fill="none" style="stroke:#181818;stroke-width:0.5;"/><text fill="#000000" font-family="sans-serif" font-size="14" lengthAdjust="spacing" textLength="66.4248" x="211.99" y="217.0452">RabbitMQ</text><text fill="#000000" font-family="sans-serif" font-size="14" lengthAdjust="spacing" textLength="116.0195" x="211.99" y="233.5334">[Message Broker]</text></g><!--entity FE_Career--><g class="entity" data-qualified-name="Syst.mov. hranice. Platforma n.boru a adaptace KZ.Prezenta.n. vrstva.FE_Career" data-source-line="12" id="ent0006"><rect fill="#F1F1F1" height="69.4648" rx="2.5" ry="2.5" style="stroke:#181818;stroke-width:0.5;" width="130.5098" x="209.75" y="441.27"/><text fill="#000000" font-family="sans-serif" font-size="14" lengthAdjust="spacing" textLength="97.4941" x="219.75" y="464.8052">Kari&#233;rn&#237; port&#225;l</text><text fill="#000000" font-family="sans-serif" font-size="14" lengthAdjust="spacing" textLength="56.8955" x="219.75" y="481.2934">(Next.js)</text><text fill="#000000" font-family="sans-serif" font-size="14" lengthAdjust="spacing" textLength="110.5098" x="219.75" y="497.7817">[kariera.kzcr.eu]</text></g><!--entity FE_Admin--><g class="entity" data-qualified-name="Syst.mov. hranice. Platforma n.boru a adaptace KZ.Prezenta.n. vrstva.FE_Admin" data-source-line="13" id="ent0007"><rect fill="#F1F1F1" height="69.4648" rx="2.5" ry="2.5" style="stroke:#181818;stroke-width:0.5;" width="235.2295" x="157.39" y="545.27"/><text fill="#000000" font-family="sans-serif" font-size="14" lengthAdjust="spacing" textLength="215.2295" x="167.39" y="568.8052">Administra&#269;n&#237; a zam&#283;stnaneck&#253;</text><text fill="#000000" font-family="sans-serif" font-size="14" lengthAdjust="spacing" textLength="101.4795" x="167.39" y="585.2934">port&#225;l (Next.js)</text><text fill="#000000" font-family="sans-serif" font-size="14" lengthAdjust="spacing" textLength="141.9961" x="167.39" y="601.7817">[onboarding.kzcr.eu]</text></g><!--entity API--><g class="entity" data-qualified-name="Syst.mov. hranice. Platforma n.boru a adaptace KZ.Aplika.n. vrstva.API" data-source-line="17" id="ent0009"><rect fill="#F1F1F1" height="69.4648" rx="2.5" ry="2.5" style="stroke:#181818;stroke-width:0.5;" width="149.4727" x="452.62" y="545.27"/><text fill="#000000" font-family="sans-serif" font-size="14" lengthAdjust="spacing" textLength="82.2979" x="462.62" y="568.8052">Backend API</text><text fill="#000000" font-family="sans-serif" font-size="14" lengthAdjust="spacing" textLength="129.4727" x="462.62" y="585.2934">(Node.js / Express)</text><text fill="#000000" font-family="sans-serif" font-size="14" lengthAdjust="spacing" textLength="113.2305" x="462.62" y="601.7817">[hiring_backend]</text></g><!--entity AUDIT--><g class="entity" data-qualified-name="Syst.mov. hranice. Platforma n.boru a adaptace KZ.Aplika.n. vrstva.AUDIT" data-source-line="18" id="ent0010"><rect fill="#F1F1F1" height="69.4648" rx="2.5" ry="2.5" style="stroke:#181818;stroke-width:0.5;" width="109.9473" x="472.38" y="441.27"/><text fill="#000000" font-family="sans-serif" font-size="14" lengthAdjust="spacing" textLength="81.3887" x="482.38" y="464.8052">Audit Writer</text><text fill="#000000" font-family="sans-serif" font-size="14" lengthAdjust="spacing" textLength="27.8223" x="482.38" y="481.2934">(Go)</text><text fill="#000000" font-family="sans-serif" font-size="14" lengthAdjust="spacing" textLength="89.9473" x="482.38" y="497.7817">[audit_writer]</text></g><!--entity DB--><g class="entity" data-qualified-name="Syst.mov. hranice. Platforma n.boru a adaptace KZ.Datov. vrstva.DB" data-source-line="22" id="ent0012"><path d="M704.64,458.01 C704.64,448.01 764.1322,448.01 764.1322,448.01 C764.1322,448.01 823.6244,448.01 823.6244,458.01 L823.6244,499.9866 C823.6244,509.9866 764.1322,509.9866 764.1322,509.9866 C764.1322,509.9866 704.64,509.9866 704.64,499.9866 L704.64,458.01" fill="#F1F1F1" style="stroke:#181818;stroke-width:0.5;"/><path d="M704.64,458.01 C704.64,468.01 764.1322,468.01 764.1322,468.01 C764.1322,468.01 823.6244,468.01 823.6244,458.01" fill="none" style="stroke:#181818;stroke-width:0.5;"/><text fill="#000000" font-family="sans-serif" font-size="14" lengthAdjust="spacing" textLength="98.9844" x="714.64" y="485.5452">PostgreSQL 17</text><text fill="#000000" font-family="sans-serif" font-size="14" lengthAdjust="spacing" textLength="74.8809" x="714.64" y="502.0334">+ pgvector</text></g><!--entity OBJ--><g class="entity" data-qualified-name="Syst.mov. hranice. Platforma n.boru a adaptace KZ.Datov. vrstva.OBJ" data-source-line="23" id="ent0013"><path d="M674.39,544.51 L715.39,544.51 A3.75,3.75 0 0 1 717.89,547.01 L724.89,565.51 L853.8617,565.51 A2.5,2.5 0 0 1 856.3617,568.01 L856.3617,612.9866 A2.5,2.5 0 0 1 853.8617,615.4866 L674.39,615.4866 A2.5,2.5 0 0 1 671.89,612.9866 L671.89,547.01 A2.5,2.5 0 0 1 674.39,544.51" fill="#F1F1F1" style="stroke:#181818;stroke-width:0.5;"/><line style="stroke:#181818;stroke-width:0.5;" x1="671.89" x2="724.89" y1="565.51" y2="565.51"/><text fill="#000000" font-family="sans-serif" font-size="14" lengthAdjust="spacing" textLength="73.3154" x="681.89" y="586.0452">SeaweedFS</text><text fill="#000000" font-family="sans-serif" font-size="14" lengthAdjust="spacing" textLength="154.4717" x="681.89" y="602.5334">[S3 objektov&#233; &#250;lo&#382;i&#353;t&#283;]</text></g><!--entity TIKA--><g class="entity" data-qualified-name="Syst.mov. hranice. Platforma n.boru a adaptace KZ.AINode.TIKA" data-source-line="29" id="ent0016"><rect fill="#F1F1F1" height="52.9766" rx="2.5" ry="2.5" style="stroke:#181818;stroke-width:0.5;" width="127.3174" x="700.47" y="193.51"/><text fill="#000000" font-family="sans-serif" font-size="14" lengthAdjust="spacing" textLength="83.1045" x="710.47" y="217.0452">Apache Tika</text><text fill="#000000" font-family="sans-serif" font-size="14" lengthAdjust="spacing" textLength="107.3174" x="710.47" y="233.5334">[extrakce textu]</text></g><!--entity CVP--><g class="entity" data-qualified-name="Syst.mov. hranice. Platforma n.boru a adaptace KZ.AINode.CVP" data-source-line="30" id="ent0017"><rect fill="#F1F1F1" height="52.9766" rx="2.5" ry="2.5" style="stroke:#181818;stroke-width:0.5;" width="108.1289" x="473.29" y="193.51"/><text fill="#000000" font-family="sans-serif" font-size="14" lengthAdjust="spacing" textLength="88.1289" x="483.29" y="217.0452">cv_processor</text><text fill="#000000" font-family="sans-serif" font-size="14" lengthAdjust="spacing" textLength="27.8223" x="483.29" y="233.5334">(Go)</text></g><!--entity JOBP--><g class="entity" data-qualified-name="Syst.mov. hranice. Platforma n.boru a adaptace KZ.AINode.JOBP" data-source-line="31" id="ent0018"><rect fill="#F1F1F1" height="52.9766" rx="2.5" ry="2.5" style="stroke:#181818;stroke-width:0.5;" width="115.3818" x="469.66" y="105.51"/><text fill="#000000" font-family="sans-serif" font-size="14" lengthAdjust="spacing" textLength="95.3818" x="479.66" y="129.0452">job_processor</text><text fill="#000000" font-family="sans-serif" font-size="14" lengthAdjust="spacing" textLength="27.8223" x="479.66" y="145.5334">(Go)</text></g><!--entity OLLAMA--><g class="entity" data-qualified-name="Syst.mov. hranice. Platforma n.boru a adaptace KZ.AINode.OLLAMA" data-source-line="32" id="ent0019"><rect fill="#F1F1F1" height="52.9766" rx="2.5" ry="2.5" style="stroke:#181818;stroke-width:0.5;" width="123.3936" x="702.43" y="105.51"/><text fill="#000000" font-family="sans-serif" font-size="14" lengthAdjust="spacing" textLength="47.5029" x="712.43" y="129.0452">Ollama</text><text fill="#000000" font-family="sans-serif" font-size="14" lengthAdjust="spacing" textLength="103.3936" x="712.43" y="145.5334">[LLM inference]</text></g><!--entity OBS--><g class="entity" data-qualified-name="Syst.mov. hranice. Platforma n.boru a adaptace KZ.Observability.OBS" data-source-line="36" id="ent0021"><rect fill="#F1F1F1" height="52.9766" rx="2.5" ry="2.5" style="stroke:#181818;stroke-width:0.5;" width="169.5635" x="679.35" y="320.51"/><text fill="#000000" font-family="sans-serif" font-size="14" lengthAdjust="spacing" textLength="100.6934" x="689.35" y="344.0452">Promtail / Loki</text><text fill="#000000" font-family="sans-serif" font-size="14" lengthAdjust="spacing" textLength="149.5635" x="689.35" y="360.5334">Prometheus / Grafana</text></g><!--entity Candidate--><g class="entity" data-qualified-name="Candidate" data-source-line="6" id="ent0002"><ellipse cx="51.6936" cy="438.26" fill="#F1F1F1" rx="8" ry="8" style="stroke:#181818;stroke-width:0.5;"/><path d="M51.6936,446.26 L51.6936,473.26 M38.6936,454.26 L64.6936,454.26 M51.6936,473.26 L38.6936,488.26 M51.6936,473.26 L64.6936,488.26" fill="none" style="stroke:#181818;stroke-width:0.5;"/><text fill="#000000" font-family="sans-serif" font-size="14" lengthAdjust="spacing" textLength="56.2871" x="23.55" y="503.2952">Uchaze&#269;</text></g><!--entity Internal--><g class="entity" data-qualified-name="Internal" data-source-line="7" id="ent0003"><ellipse cx="51.6948" cy="550.01" fill="#F1F1F1" rx="8" ry="8" style="stroke:#181818;stroke-width:0.5;"/><path d="M51.6948,558.01 L51.6948,585.01 M38.6948,566.01 L64.6948,566.01 M51.6948,585.01 L38.6948,600.01 M51.6948,585.01 L64.6948,600.01" fill="none" style="stroke:#181818;stroke-width:0.5;"/><text fill="#000000" font-family="sans-serif" font-size="14" lengthAdjust="spacing" textLength="91.3896" x="6" y="615.0452">HR / Admin /</text><text fill="#000000" font-family="sans-serif" font-size="14" lengthAdjust="spacing" textLength="89.5166" x="6" y="631.5334">Zam&#283;stnanec</text></g><!--entity SSO--><g class="entity" data-qualified-name="SSO" data-source-line="40" id="ent0022"><rect fill="#F1F1F1" height="52.9766" rx="2.5" ry="2.5" style="stroke:#181818;stroke-width:0.5;" width="89.2822" x="719.49" y="846.51"/><text fill="#000000" font-family="sans-serif" font-size="14" lengthAdjust="spacing" textLength="69.2822" x="729.49" y="870.0452">SSO / UCP</text><text fill="#000000" font-family="sans-serif" font-size="14" lengthAdjust="spacing" textLength="64.5107" x="729.49" y="886.5334">[External]</text></g><!--entity NRZP--><g class="entity" data-qualified-name="NRZP" data-source-line="41" id="ent0023"><rect fill="#F1F1F1" height="52.9766" rx="2.5" ry="2.5" style="stroke:#181818;stroke-width:0.5;" width="84.5107" x="721.88" y="934.51"/><text fill="#000000" font-family="sans-serif" font-size="14" lengthAdjust="spacing" textLength="35.3965" x="731.88" y="958.0452">NRZP</text><text fill="#000000" font-family="sans-serif" font-size="14" lengthAdjust="spacing" textLength="64.5107" x="731.88" y="974.5334">[External]</text></g><!--entity SMTP--><g class="entity" data-qualified-name="SMTP" data-source-line="42" id="ent0024"><rect fill="#F1F1F1" height="52.9766" rx="2.5" ry="2.5" style="stroke:#181818;stroke-width:0.5;" width="102.0586" x="713.1" y="670.51"/><text fill="#000000" font-family="sans-serif" font-size="14" lengthAdjust="spacing" textLength="82.0586" x="723.1" y="694.0452">SMTP server</text><text fill="#000000" font-family="sans-serif" font-size="14" lengthAdjust="spacing" textLength="64.5107" x="723.1" y="710.5334">[External]</text></g><!--entity VEMA--><g class="entity" data-qualified-name="VEMA" data-source-line="43" id="ent0025"><rect fill="#F1F1F1" height="52.9766" rx="2.5" ry="2.5" style="stroke:#181818;stroke-width:0.5;" width="204.0781" x="662.09" y="758.51"/><text fill="#000000" font-family="sans-serif" font-size="14" lengthAdjust="spacing" textLength="37.7549" x="672.09" y="782.0452">Vema</text><text fill="#000000" font-family="sans-serif" font-size="14" lengthAdjust="spacing" textLength="184.0781" x="672.09" y="798.5334">[External &#8212; R5, pl&#225;nov&#225;no]</text></g><!--link Candidate to FE_Career--><g class="link" data-entity-1="ent0002" data-entity-2="ent0006" data-link-type="dependency" data-source-line="45" id="lnk26"><path d="M79.98,473.76 C112.37,473.76 160.51,473.76 203.54,473.76" fill="none" id="Candidate-to-FE_Career" style="stroke:#181818;stroke-width:1;"/><polygon fill="#181818" points="209.54,473.76,200.54,469.76,204.54,473.76,200.54,477.76,209.54,473.76" style="stroke:#181818;stroke-width:1;"/></g><!--link Internal to FE_Admin--><g class="link" data-entity-1="ent0003" data-entity-2="ent0007" data-link-type="dependency" data-source-line="46" id="lnk27"><path d="M97.69,580 C115.19,580 130.01,580 151.14,580" fill="none" id="Internal-to-FE_Admin" style="stroke:#181818;stroke-width:1;"/><polygon fill="#181818" points="157.14,580,148.14,576,152.14,580,148.14,584,157.14,580" style="stroke:#181818;stroke-width:1;"/></g><!--link FE_Career to API--><g class="link" data-entity-1="ent0006" data-entity-2="ent0009" data-link-type="dependency" data-source-line="48" id="lnk28"><path d="M340.68,487.58 C393.3,487.58 458.37,487.58 458.37,487.58 C458.37,487.58 458.37,512.68 458.37,538.8" fill="none" id="FE_Career-to-API" style="stroke:#181818;stroke-width:1;"/><polygon fill="#181818" points="458.37,544.8,462.37,535.8,458.37,539.8,454.37,535.8,458.37,544.8" style="stroke:#181818;stroke-width:1;"/><text fill="#000000" font-family="sans-serif" font-size="13" lengthAdjust="spacing" textLength="85.7124" x="342.13" y="501.1484">HTTPS / REST</text></g><!--link FE_Admin to API--><g class="link" data-entity-1="ent0007" data-entity-2="ent0009" data-link-type="dependency" data-source-line="49" id="lnk29"><path d="M393.05,580 C413.19,580 427.61,580 446.24,580" fill="none" id="FE_Admin-to-API" style="stroke:#181818;stroke-width:1;"/><polygon fill="#181818" points="452.24,580,443.24,576,447.24,580,443.24,584,452.24,580" style="stroke:#181818;stroke-width:1;"/><text fill="#000000" font-family="sans-serif" font-size="13" lengthAdjust="spacing" textLength="85.7124" x="336.65" y="593.5684">HTTPS / REST</text></g><!--link API to DB--><g class="link" data-entity-1="ent0009" data-entity-2="ent0012" data-link-type="dependency" data-source-line="51" id="lnk30"><path d="M596.37,544.95 C596.37,519.43 596.37,489.33 596.37,489.33 C596.37,489.33 650.29,489.33 698.51,489.33" fill="none" id="API-to-DB" style="stroke:#181818;stroke-width:1;"/><polygon fill="#181818" points="704.51,489.33,695.51,485.33,699.51,489.33,695.51,493.33,704.51,489.33" style="stroke:#181818;stroke-width:1;"/><text fill="#000000" font-family="sans-serif" font-size="13" lengthAdjust="spacing" textLength="24.0322" x="597.63" y="502.8984">SQL</text></g><!--link API to OBJ--><g class="link" data-entity-1="ent0009" data-entity-2="ent0013" data-link-type="dependency" data-source-line="52" id="lnk31"><path d="M602.27,568.42 C624.22,568.42 642.48,568.42 665.4,568.42" fill="none" id="API-to-OBJ" style="stroke:#181818;stroke-width:1;"/><polygon fill="#181818" points="671.4,568.42,662.4,564.42,666.4,568.42,662.4,572.42,671.4,568.42" style="stroke:#181818;stroke-width:1;"/><text fill="#000000" font-family="sans-serif" font-size="13" lengthAdjust="spacing" textLength="39.2349" x="637.84" y="581.9884">S3 API</text></g><!--link API to MQ--><g class="link" data-entity-1="ent0009" data-entity-2="ent0014" data-link-type="dependency" data-source-line="53" id="lnk32"><path d="M464.37,544.92 C464.37,455.18 464.37,224.3 464.37,224.3 C464.37,224.3 403.61,224.3 349.37,224.3" fill="none" id="API-to-MQ" style="stroke:#181818;stroke-width:1;"/><polygon fill="#181818" points="343.37,224.3,352.37,228.3,348.37,224.3,352.37,220.3,343.37,224.3" style="stroke:#181818;stroke-width:1;"/><text fill="#000000" font-family="sans-serif" font-size="13" lengthAdjust="spacing" textLength="96.6621" x="465.37" y="337.6784">AMQP (publish)</text></g><!--link MQ to CVP--><g class="link" data-entity-1="ent0014" data-entity-2="ent0017" data-link-type="dependency" data-source-line="55" id="lnk33"><path d="M343.29,215.7 C384.02,215.7 429.02,215.7 467,215.7" fill="none" id="MQ-to-CVP" style="stroke:#181818;stroke-width:1;"/><polygon fill="#181818" points="473,215.7,464,211.7,468,215.7,464,219.7,473,215.7" style="stroke:#181818;stroke-width:1;"/><text fill="#000000" font-family="sans-serif" font-size="13" lengthAdjust="spacing" textLength="106.8057" x="301.15" y="229.2684">AMQP (consume)</text></g><!--link CVP to MQ--><g class="link" data-entity-1="ent0017" data-entity-2="ent0014" data-link-type="dependency" data-source-line="63" id="lnk39"><path d="M472.91,207.11 C434.95,207.11 390.02,207.11 349.33,207.11" fill="none" id="CVP-to-MQ" style="stroke:#181818;stroke-width:1;"/><polygon fill="#181818" points="343.33,207.11,352.33,211.11,348.33,207.11,352.33,203.11,343.33,207.11" style="stroke:#181818;stroke-width:1;"/><text fill="#000000" font-family="sans-serif" font-size="13" lengthAdjust="spacing" textLength="154.4956" x="253.12" y="203.6784">AMQP (publish v&#253;sledky)</text></g><!--link MQ to JOBP--><g class="link" data-entity-1="ent0014" data-entity-2="ent0018" data-link-type="dependency" data-source-line="56" id="lnk34"><path d="M252.37,198.03 C252.37,169.46 252.37,123.17 252.37,123.17 C252.37,123.17 382.69,123.17 463.37,123.17" fill="none" id="MQ-to-JOBP" style="stroke:#181818;stroke-width:1;"/><polygon fill="#181818" points="469.37,123.17,460.37,119.17,464.37,123.17,460.37,127.17,469.37,123.17" style="stroke:#181818;stroke-width:1;"/><text fill="#000000" font-family="sans-serif" font-size="13" lengthAdjust="spacing" textLength="106.8057" x="216.44" y="136.7384">AMQP (consume)</text></g><!--link JOBP to MQ--><g class="link" data-entity-1="ent0018" data-entity-2="ent0014" data-link-type="dependency" data-source-line="64" id="lnk40"><path d="M469.32,140.83 C401.19,140.83 297.37,140.83 297.37,140.83 C297.37,140.83 297.37,168.93 297.37,192.37" fill="none" id="JOBP-to-MQ" style="stroke:#181818;stroke-width:1;"/><polygon fill="#181818" points="297.37,198.37,301.37,189.37,297.37,193.37,293.37,189.37,297.37,198.37" style="stroke:#181818;stroke-width:1;"/><text fill="#000000" font-family="sans-serif" font-size="13" lengthAdjust="spacing" textLength="154.4956" x="199.57" y="154.3984">AMQP (publish v&#253;sledky)</text></g><!--link MQ to AUDIT--><g class="link" data-entity-1="ent0014" data-entity-2="ent0010" data-link-type="dependency" data-source-line="57" id="lnk35"><path d="M343.51,232.89 C381.99,232.89 422.37,232.89 422.37,232.89 C422.37,232.89 422.37,464.42 422.37,464.42 C422.37,464.42 440.8,464.42 466.09,464.42" fill="none" id="MQ-to-AUDIT" style="stroke:#181818;stroke-width:1;"/><polygon fill="#181818" points="472.09,464.42,463.09,460.42,467.09,464.42,463.09,468.42,472.09,464.42" style="stroke:#181818;stroke-width:1;"/><text fill="#000000" font-family="sans-serif" font-size="13" lengthAdjust="spacing" textLength="106.8057" x="315.37" y="347.6584">AMQP (consume)</text></g><!--link CVP to TIKA--><g class="link" data-entity-1="ent0017" data-entity-2="ent0016" data-link-type="dependency" data-source-line="59" id="lnk36"><path d="M581.68,228.83 C616.9,228.83 656.96,228.83 693.98,228.83" fill="none" id="CVP-to-TIKA" style="stroke:#181818;stroke-width:1;"/><polygon fill="#181818" points="699.98,228.83,690.98,224.83,694.98,228.83,690.98,232.83,699.98,228.83" style="stroke:#181818;stroke-width:1;"/><text fill="#000000" font-family="sans-serif" font-size="13" lengthAdjust="spacing" textLength="99.8232" x="641.83" y="242.3984">HTTP (extrakce)</text></g><!--link CVP to OLLAMA--><g class="link" data-entity-1="ent0017" data-entity-2="ent0019" data-link-type="dependency" data-source-line="60" id="lnk37"><path d="M581.71,211.17 C607.33,211.17 632.37,211.17 632.37,211.17 C632.37,211.17 632.37,140.83 632.37,140.83 C632.37,140.83 661.93,140.83 696.11,140.83" fill="none" id="CVP-to-OLLAMA" style="stroke:#181818;stroke-width:1;"/><polygon fill="#181818" points="702.11,140.83,693.11,136.83,697.11,140.83,693.11,144.83,702.11,140.83" style="stroke:#181818;stroke-width:1;"/><text fill="#000000" font-family="sans-serif" font-size="13" lengthAdjust="spacing" textLength="104.127" x="527.37" y="180.0284">HTTP (inference)</text></g><!--link JOBP to OLLAMA--><g class="link" data-entity-1="ent0018" data-entity-2="ent0019" data-link-type="dependency" data-source-line="61" id="lnk38"><path d="M585.28,123.17 C620.74,123.17 660.09,123.17 696.25,123.17" fill="none" id="JOBP-to-OLLAMA" style="stroke:#181818;stroke-width:1;"/><polygon fill="#181818" points="702.25,123.17,693.25,119.17,697.25,123.17,693.25,127.17,702.25,123.17" style="stroke:#181818;stroke-width:1;"/><text fill="#000000" font-family="sans-serif" font-size="13" lengthAdjust="spacing" textLength="109.0464" x="644.76" y="136.7384">HTTP (streaming)</text></g><!--link AUDIT to DB--><g class="link" data-entity-1="ent0010" data-entity-2="ent0012" data-link-type="dependency" data-source-line="65" id="lnk41"><path d="M582.57,468.67 C619.06,468.67 660.86,468.67 698.26,468.67" fill="none" id="AUDIT-to-DB" style="stroke:#181818;stroke-width:1;"/><polygon fill="#181818" points="704.26,468.67,695.26,464.67,699.26,468.67,695.26,472.67,704.26,468.67" style="stroke:#181818;stroke-width:1;"/><text fill="#000000" font-family="sans-serif" font-size="13" lengthAdjust="spacing" textLength="129.0225" x="513.42" y="482.2384">SQL (audit z&#225;znamy)</text></g><!--link API to SSO--><g class="link" data-entity-1="ent0009" data-entity-2="ent0022" data-link-type="dependency" data-source-line="67" id="lnk42"><path d="M527.37,615.05 C527.37,692.82 527.37,873 527.37,873 C527.37,873 644.35,873 713.04,873" fill="none" id="API-to-SSO" style="stroke:#181818;stroke-width:1;"/><polygon fill="#181818" points="719.04,873,710.04,869,714.04,873,710.04,877,719.04,873" style="stroke:#181818;stroke-width:1;"/><text fill="#000000" font-family="sans-serif" font-size="13" lengthAdjust="spacing" textLength="32.5762" x="494.37" y="853.4284">OIDC</text></g><!--link API to NRZP--><g class="link" data-entity-1="ent0009" data-entity-2="ent0023" data-link-type="dependency" data-source-line="68" id="lnk43"><path d="M490.37,615.16 C490.37,709.48 490.37,961 490.37,961 C490.37,961 638.76,961 715.66,961" fill="none" id="API-to-NRZP" style="stroke:#181818;stroke-width:1;"/><polygon fill="#181818" points="721.66,961,712.66,957,716.66,961,712.66,965,721.66,961" style="stroke:#181818;stroke-width:1;"/><text fill="#000000" font-family="sans-serif" font-size="13" lengthAdjust="spacing" textLength="78.7871" x="411.37" y="917.2984">SOAP / REST</text></g><!--link API to SMTP--><g class="link" data-entity-1="ent0009" data-entity-2="ent0024" data-link-type="dependency" data-source-line="69" id="lnk44"><path d="M564.37,615.11 C564.37,649.57 564.37,697 564.37,697 C564.37,697 647.5,697 706.69,697" fill="none" id="API-to-SMTP" style="stroke:#181818;stroke-width:1;"/><polygon fill="#181818" points="712.69,697,703.69,693,707.69,697,703.69,701,712.69,697" style="stroke:#181818;stroke-width:1;"/><text fill="#000000" font-family="sans-serif" font-size="13" lengthAdjust="spacing" textLength="33.6045" x="563.58" y="710.5684">SMTP</text></g><!--link API to VEMA--><g class="link" data-entity-1="ent0009" data-entity-2="ent0025" data-link-type="dependency" data-source-line="70" id="lnk45"><path d="M602.28,591.58 C635.57,591.58 667.37,591.58 667.37,591.58 C667.37,591.58 667.37,698.96 667.37,752.11" fill="none" id="API-to-VEMA" style="stroke:#181818;stroke-width:1;"/><polygon fill="#181818" points="667.37,758.11,671.37,749.11,667.37,753.11,663.37,749.11,667.37,758.11" style="stroke:#181818;stroke-width:1;"/><text fill="#000000" font-family="sans-serif" font-size="13" lengthAdjust="spacing" textLength="30.4878" x="636.37" y="655.8684">REST</text></g><!--link API to OBS--><g class="link" data-entity-1="ent0009" data-entity-2="ent0021" data-link-type="dependency" data-source-line="72" id="lnk46"><path d="M590.37,544.87 C590.37,479.78 590.37,347 590.37,347 C590.37,347 629,347 673.03,347" fill="none" id="API-to-OBS" style="stroke:#181818;stroke-width:1;stroke-dasharray:7,7;"/><polygon fill="#181818" points="679.03,347,670.03,343,674.03,347,670.03,351,679.03,347" style="stroke:#181818;stroke-width:1;"/><text fill="#000000" font-family="sans-serif" font-size="13" lengthAdjust="spacing" textLength="89.394" x="591.37" y="415.1684">metriky / logy</text></g><?plantuml-src XLJDRjj64BxpAGO-MMYYD4sB0ZuKe2p5KIn5FvHLm5LX3CcHj2QroovNigKYG5yWjzvoqj67la21z2BdHVeadIL5bhQSbYTYvjkPRxxvTcEQ6Z0Aj9ZD3OH2Ks24aauQ2PcWnWN4Gf9P9mHAcxcg918C8foHPzOnWJs7SXPJ1P3ECLGtGivWYd5AZeE1KHgEBe8vRkZ-mn5W2gSeGn6YeIBxPWWlm0qNGiABYRp4nVt7r4YK56JujZIa9SQEKxQ48s-TcjtTGgrsMvXhb2AW4-Z7QAPABn3aRkihlGG4334n612SNnx1huu3nHHmrDUq8Mdm_eFS_G4hdPeLMWpmLsbrZbhixhJ59Ap8RXjFvF4xkZNrwxGsaJz5d2UDzMWJw3ejVyv8lsvTdQ8cqe-hPNEArEXzMuHDPU1ezsaYzrsWsaH9Nw4EMTg3Fbb5RlF-mN1k4ele_qPhC9fa26w_RMTI8N4xNaRhDj6KPetdGdFJApz7vaqPVZ3MCXG6VjI2TyMbpfGzYpPuTPC5zoSlcktH0TScccoH3tcoHT37r2vAfMQcoHjquENt4_aL9BCLMUzaDPkD33vLSKZi9e_mXYXyxJ41xnKe_veYM_uETd_6wlDVulFMt7_CwVGQRmiolonfoQs6wFl2T0TykCiAM7eDhQA2VtTWiPA5Ojiogvpo6WHxD1OpTXFhFLUmIJG6TYOhFmzYrHstcsqNt9TVFuDlleMp1eo7RhUMozAssX_knsM9vWGZtYGJOZTeZDZAXl_s-n-rpzt7fuBLLQ9LmFJLVXVvlHlt7oElbVyaz6slSO3jnJ4kB8rEfylpJacJ36YlOwVZTjs3lVRybFGAVH4Bitx2Vdsj5WP5p8xhg4XCf0sGcTFIcl1CunGbxXVbPTNVFtm4l1xZBaxxpAfrcxyIEI7EL87lXfU761jyKAqxweCbR1tyk1xdgjWnPL8K8FZxjzzX-DqpI69UURPtbHySjrWNftpouFdp7oflG_6q5U7yAZib88lpROCJU3CQzJsUTjZoHau1_LBUiJ6RQpOunVUc3B3ZRUHLTeUBO7V0CRSxwCDnilHZaSvhZiD1csFNbCb0oNIve5gHipRvOZAxweTPnnQqUUlSFMyuBgnTAzEvfKf0QRYQatLz0i9lAY6BCgiqEPmCLhjFQKnXjAvK-czOFabLJZZEdZROxBORYGl6b5fQJvv0hzqyBKFMQFPSp-qN2ohHrdCdkRsAcBKCn_vTPBrkz-PnZ2-75j6QgyHgjdR-0G00?></g></svg>