<?plantuml 1.2026.1?><svg xmlns="http://www.w3.org/2000/svg" xmlns:xlink="http://www.w3.org/1999/xlink" contentStyleType="text/css" data-diagram-type="DESCRIPTION" height="691px" preserveAspectRatio="none" style="width:1557px;height:691px;background:#FFFFFF;" version="1.1" viewBox="0 0 1557 691" width="1557px" zoomAndPan="magnify"><defs/><g><!--cluster HTTP vrstva--><g class="cluster" data-qualified-name="HTTP vrstva" data-source-line="6" id="ent0002"><rect fill="none" height="233.44" rx="2.5" ry="2.5" style="stroke:#181818;stroke-width:1;" width="232" x="751" y="7"/><text fill="#000000" font-family="sans-serif" font-size="14" font-weight="bold" lengthAdjust="spacing" textLength="88.2383" x="822.8809" y="22.5352">HTTP vrstva</text></g><!--cluster Dom?nov? j?dro--><g class="cluster" data-qualified-name="Dom.nov. j.dro" data-source-line="11" id="ent0005"><rect fill="none" height="292.93" rx="2.5" ry="2.5" style="stroke:#181818;stroke-width:1;" width="1544" x="7" y="264.44"/><text fill="#000000" font-family="sans-serif" font-size="14" font-weight="bold" lengthAdjust="spacing" textLength="118.5557" x="719.7222" y="279.9752">Dom&#233;nov&#233; j&#225;dro</text></g><!--cluster Bounded Contexts (domain modules)--><g class="cluster" data-qualified-name="Dom.nov. j.dro.Bounded Contexts .domain modules." data-source-line="12" id="ent0006"><rect fill="none" height="103.98" rx="2.5" ry="2.5" style="stroke:#181818;stroke-width:1;" width="1496" x="31" y="307.44"/><text fill="#000000" font-family="sans-serif" font-size="14" font-weight="bold" lengthAdjust="spacing" textLength="266.4033" x="645.7983" y="322.9752">Bounded Contexts (domain modules)</text></g><!--cluster Platformn? adapt?ry (src/platform)--><g class="cluster" data-qualified-name="Platformn. adapt.ry .src.platform." data-source-line="22" id="ent0013"><rect fill="none" height="103.98" rx="2.5" ry="2.5" style="stroke:#181818;stroke-width:1;" width="1237" x="190" y="581.37"/><text fill="#000000" font-family="sans-serif" font-size="14" font-weight="bold" lengthAdjust="spacing" textLength="250.5645" x="683.2178" y="596.9052">Platformn&#237; adapt&#233;ry (src/platform)</text></g><!--entity Routes--><g class="entity" data-qualified-name="HTTP vrstva.Routes" data-source-line="7" id="ent0003"><rect fill="#F1F1F1" height="52.9766" rx="2.5" ry="2.5" style="stroke:#181818;stroke-width:0.5;" width="187.3711" x="773.31" y="42"/><text fill="#000000" font-family="sans-serif" font-size="14" lengthAdjust="spacing" textLength="102.1221" x="783.31" y="65.5352">Express Router</text><text fill="#000000" font-family="sans-serif" font-size="14" lengthAdjust="spacing" textLength="167.3711" x="783.31" y="82.0234">[route definice + mount]</text></g><!--entity MW--><g class="entity" data-qualified-name="HTTP vrstva.MW" data-source-line="8" id="ent0004"><rect fill="#F1F1F1" height="69.4648" rx="2.5" ry="2.5" style="stroke:#181818;stroke-width:0.5;" width="199.375" x="767.31" y="154.98"/><text fill="#000000" font-family="sans-serif" font-size="14" lengthAdjust="spacing" textLength="136.1035" x="777.31" y="178.5152">Middleware pipeline</text><text fill="#000000" font-family="sans-serif" font-size="14" lengthAdjust="spacing" textLength="163.0029" x="777.31" y="195.0034">(autentizace &#183; org scope</text><text fill="#000000" font-family="sans-serif" font-size="14" lengthAdjust="spacing" textLength="179.375" x="777.31" y="211.4917">request context &#183; validace)</text></g><!--entity PORTS--><g class="entity" data-qualified-name="Dom.nov. j.dro.PORTS" data-source-line="19" id="ent0012"><rect fill="#F1F1F1" height="85.9531" rx="2.5" ry="2.5" style="stroke:#181818;stroke-width:0.5;" width="215.2754" x="654.36" y="455.42"/><text fill="#000000" font-family="sans-serif" font-size="14" lengthAdjust="spacing" textLength="96.6328" x="664.36" y="478.9552">Port kontrakty</text><text fill="#000000" font-family="sans-serif" font-size="14" lengthAdjust="spacing" textLength="195.2754" x="664.36" y="495.4434">[src/shared/contracts/ports]</text><text fill="#000000" font-family="sans-serif" font-size="14" lengthAdjust="spacing" textLength="175.4102" x="664.36" y="511.9317">(NotificationsPort &#183; CvPort</text><text fill="#000000" font-family="sans-serif" font-size="14" lengthAdjust="spacing" textLength="156.5566" x="664.36" y="528.42">JobEmbeddingPort &#183; ...)</text></g><!--entity M_APP--><g class="entity" data-qualified-name="Dom.nov. j.dro.Bounded Contexts .domain modules..M_APP" data-source-line="13" id="ent0007"><rect fill="#F1F1F1" height="52.9766" rx="2.5" ry="2.5" style="stroke:#181818;stroke-width:0.5;" width="294.4561" x="614.77" y="342.44"/><text fill="#000000" font-family="sans-serif" font-size="14" lengthAdjust="spacing" textLength="69.4121" x="624.77" y="365.9752">applicants</text><text fill="#000000" font-family="sans-serif" font-size="14" lengthAdjust="spacing" textLength="274.4561" x="624.77" y="382.4634">[controller &#183; service &#183; repository &#183; events]</text></g><!--entity M_JOBS--><g class="entity" data-qualified-name="Dom.nov. j.dro.Bounded Contexts .domain modules..M_JOBS" data-source-line="14" id="ent0008"><rect fill="#F1F1F1" height="52.9766" rx="2.5" ry="2.5" style="stroke:#181818;stroke-width:0.5;" width="294.4561" x="943.77" y="342.44"/><text fill="#000000" font-family="sans-serif" font-size="14" lengthAdjust="spacing" textLength="28.8066" x="953.77" y="365.9752">jobs</text><text fill="#000000" font-family="sans-serif" font-size="14" lengthAdjust="spacing" textLength="274.4561" x="953.77" y="382.4634">[controller &#183; service &#183; repository &#183; events]</text></g><!--entity M_INT--><g class="entity" data-qualified-name="Dom.nov. j.dro.Bounded Contexts .domain modules..M_INT" data-source-line="15" id="ent0009"><rect fill="#F1F1F1" height="52.9766" rx="2.5" ry="2.5" style="stroke:#181818;stroke-width:0.5;" width="237.2598" x="1273.37" y="342.44"/><text fill="#000000" font-family="sans-serif" font-size="14" lengthAdjust="spacing" textLength="68.5166" x="1283.37" y="365.9752">interviews</text><text fill="#000000" font-family="sans-serif" font-size="14" lengthAdjust="spacing" textLength="217.2598" x="1283.37" y="382.4634">[controller &#183; service &#183; repository]</text></g><!--entity M_EMP--><g class="entity" data-qualified-name="Dom.nov. j.dro.Bounded Contexts .domain modules..M_EMP" data-source-line="16" id="ent0010"><rect fill="#F1F1F1" height="52.9766" rx="2.5" ry="2.5" style="stroke:#181818;stroke-width:0.5;" width="237.2598" x="47.37" y="342.44"/><text fill="#000000" font-family="sans-serif" font-size="14" lengthAdjust="spacing" textLength="159.3252" x="57.37" y="365.9752">employees &#183; jobSeekers</text><text fill="#000000" font-family="sans-serif" font-size="14" lengthAdjust="spacing" textLength="217.2598" x="57.37" y="382.4634">[controller &#183; service &#183; repository]</text></g><!--entity M_OTHER--><g class="entity" data-qualified-name="Dom.nov. j.dro.Bounded Contexts .domain modules..M_OTHER" data-source-line="17" id="ent0011"><rect fill="#F1F1F1" height="52.9766" rx="2.5" ry="2.5" style="stroke:#181818;stroke-width:0.5;" width="259.8662" x="320.07" y="342.44"/><text fill="#000000" font-family="sans-serif" font-size="14" lengthAdjust="spacing" textLength="239.8662" x="330.07" y="365.9752">notifications &#183; chat &#183; cv &#183; operations</text><text fill="#000000" font-family="sans-serif" font-size="14" lengthAdjust="spacing" textLength="217.2598" x="330.07" y="382.4634">[controller &#183; service &#183; repository]</text></g><!--entity ADB--><g class="entity" data-qualified-name="Platformn. adapt.ry .src.platform..ADB" data-source-line="23" id="ent0014"><rect fill="#F1F1F1" height="52.9766" rx="2.5" ry="2.5" style="stroke:#181818;stroke-width:0.5;" width="160.2529" x="205.87" y="616.37"/><text fill="#000000" font-family="sans-serif" font-size="14" lengthAdjust="spacing" textLength="74.8193" x="215.87" y="639.9052">DB adapter</text><text fill="#000000" font-family="sans-serif" font-size="14" lengthAdjust="spacing" textLength="140.2529" x="215.87" y="656.3934">(pg connection pool)</text></g><!--entity AOBJ--><g class="entity" data-qualified-name="Platformn. adapt.ry .src.platform..AOBJ" data-source-line="24" id="ent0015"><rect fill="#F1F1F1" height="52.9766" rx="2.5" ry="2.5" style="stroke:#181818;stroke-width:0.5;" width="160.875" x="401.56" y="616.37"/><text fill="#000000" font-family="sans-serif" font-size="14" lengthAdjust="spacing" textLength="107.6455" x="411.56" y="639.9052">Storage adapter</text><text fill="#000000" font-family="sans-serif" font-size="14" lengthAdjust="spacing" textLength="140.875" x="411.56" y="656.3934">(SeaweedFS / S3 API)</text></g><!--entity AMQ--><g class="entity" data-qualified-name="Platformn. adapt.ry .src.platform..AMQ" data-source-line="25" id="ent0016"><rect fill="#F1F1F1" height="52.9766" rx="2.5" ry="2.5" style="stroke:#181818;stroke-width:0.5;" width="142.7051" x="597.65" y="616.37"/><text fill="#000000" font-family="sans-serif" font-size="14" lengthAdjust="spacing" textLength="122.7051" x="607.65" y="639.9052">RabbitMQ adapter</text><text fill="#000000" font-family="sans-serif" font-size="14" lengthAdjust="spacing" textLength="104.0977" x="607.65" y="656.3934">(AMQP publish)</text></g><!--entity AEMAIL--><g class="entity" data-qualified-name="Platformn. adapt.ry .src.platform..AEMAIL" data-source-line="26" id="ent0017"><rect fill="#F1F1F1" height="52.9766" rx="2.5" ry="2.5" style="stroke:#181818;stroke-width:0.5;" width="159.4736" x="775.26" y="616.37"/><text fill="#000000" font-family="sans-serif" font-size="14" lengthAdjust="spacing" textLength="92.7637" x="785.26" y="639.9052">Email adapter</text><text fill="#000000" font-family="sans-serif" font-size="14" lengthAdjust="spacing" textLength="139.4736" x="785.26" y="656.3934">(Nodemailer / SMTP)</text></g><!--entity AAUDIT--><g class="entity" data-qualified-name="Platformn. adapt.ry .src.platform..AAUDIT" data-source-line="27" id="ent0018"><rect fill="#F1F1F1" height="52.9766" rx="2.5" ry="2.5" style="stroke:#181818;stroke-width:0.5;" width="203.8115" x="970.09" y="616.37"/><text fill="#000000" font-family="sans-serif" font-size="14" lengthAdjust="spacing" textLength="92.7227" x="980.09" y="639.9052">Audit adapter</text><text fill="#000000" font-family="sans-serif" font-size="14" lengthAdjust="spacing" textLength="183.8115" x="980.09" y="656.3934">(RabbitMQ &#8594; audit_events)</text></g><!--entity AOUTBOX--><g class="entity" data-qualified-name="Platformn. adapt.ry .src.platform..AOUTBOX" data-source-line="28" id="ent0019"><rect fill="#F1F1F1" height="52.9766" rx="2.5" ry="2.5" style="stroke:#181818;stroke-width:0.5;" width="202.6426" x="1208.68" y="616.37"/><text fill="#000000" font-family="sans-serif" font-size="14" lengthAdjust="spacing" textLength="170.1602" x="1218.68" y="639.9052">Outbox service + Worker</text><text fill="#000000" font-family="sans-serif" font-size="14" lengthAdjust="spacing" textLength="182.6426" x="1218.68" y="656.3934">(transactional side-effects)</text></g><!--entity DI--><g class="entity" data-qualified-name="DI" data-source-line="31" id="ent0020"><rect fill="#F1F1F1" height="69.4648" rx="2.5" ry="2.5" style="stroke:#181818;stroke-width:0.5;" width="151.3457" x="581.33" y="154.98"/><text fill="#000000" font-family="sans-serif" font-size="14" lengthAdjust="spacing" textLength="84.8887" x="591.33" y="178.5152">DI Kontejner</text><text fill="#000000" font-family="sans-serif" font-size="14" lengthAdjust="spacing" textLength="50.2783" x="591.33" y="195.0034">(Awilix)</text><text fill="#000000" font-family="sans-serif" font-size="14" lengthAdjust="spacing" textLength="131.3457" x="591.33" y="211.4917">[Composition Root]</text></g><!--link Routes to MW--><g class="link" data-entity-1="ent0003" data-entity-2="ent0004" data-link-type="dependency" data-source-line="33" id="lnk21"><path d="M867,95.39 C867,112.83 867,129.73 867,148.59" fill="none" id="Routes-to-MW" style="stroke:#181818;stroke-width:1;"/><polygon fill="#181818" points="867,154.59,871,145.59,867,149.59,863,145.59,867,154.59" style="stroke:#181818;stroke-width:1;"/></g><!--link MW to M_APP--><g class="link" data-entity-1="ent0004" data-entity-2="ent0007" data-link-type="dependency" data-source-line="34" id="lnk22"><path d="M873.75,224.69 C873.75,259.12 873.75,304.96 873.75,336.21" fill="none" id="MW-to-M_APP" style="stroke:#181818;stroke-width:1;"/><polygon fill="#181818" points="873.75,342.21,877.75,333.21,873.75,337.21,869.75,333.21,873.75,342.21" style="stroke:#181818;stroke-width:1;"/></g><!--link MW to M_JOBS--><g class="link" data-entity-1="ent0004" data-entity-2="ent0008" data-link-type="dependency" data-source-line="35" id="lnk23"><path d="M959.05,224.69 C959.05,259.12 959.05,304.96 959.05,336.21" fill="none" id="MW-to-M_JOBS" style="stroke:#181818;stroke-width:1;"/><polygon fill="#181818" points="959.05,342.21,963.05,333.21,959.05,337.21,955.05,333.21,959.05,342.21" style="stroke:#181818;stroke-width:1;"/></g><!--link MW to M_INT--><g class="link" data-entity-1="ent0004" data-entity-2="ent0009" data-link-type="dependency" data-source-line="36" id="lnk24"><path d="M966.95,189.35 C1129.1,189.35 1431.54,189.35 1431.54,189.35 C1431.54,189.35 1431.54,285.95 1431.54,336.05" fill="none" id="MW-to-M_INT" style="stroke:#181818;stroke-width:1;"/><polygon fill="#181818" points="1431.54,342.05,1435.54,333.05,1431.54,337.05,1427.54,333.05,1431.54,342.05" style="stroke:#181818;stroke-width:1;"/></g><!--link MW to M_EMP--><g class="link" data-entity-1="ent0004" data-entity-2="ent0010" data-link-type="dependency" data-source-line="37" id="lnk25"><path d="M802.79,224.81 C802.79,246.93 802.79,271.35 802.79,271.35 C802.79,271.35 205.54,271.35 205.54,271.35 C205.54,271.35 205.54,307.13 205.54,336.01" fill="none" id="MW-to-M_EMP" style="stroke:#181818;stroke-width:1;"/><polygon fill="#181818" points="205.54,342.01,209.54,333.01,205.54,337.01,201.54,333.01,205.54,342.01" style="stroke:#181818;stroke-width:1;"/></g><!--link MW to M_OTHER--><g class="link" data-entity-1="ent0004" data-entity-2="ent0011" data-link-type="dependency" data-source-line="38" id="lnk26"><path d="M838.27,224.86 C838.27,262.95 838.27,318.35 838.27,318.35 C838.27,318.35 450,318.35 450,318.35 C450,318.35 450,324.03 450,336.16" fill="none" id="MW-to-M_OTHER" style="stroke:#181818;stroke-width:1;"/><polygon fill="#181818" points="450,342.16,454,333.16,450,337.16,446,333.16,450,342.16" style="stroke:#181818;stroke-width:1;"/></g><!--link M_APP to PORTS--><g class="link" data-entity-1="ent0007" data-entity-2="ent0012" data-link-type="dependency" data-source-line="40" id="lnk27"><path d="M762,395.76 C762,412.87 762,429.43 762,449.04" fill="none" id="M_APP-to-PORTS" style="stroke:#181818;stroke-width:1;"/><polygon fill="#181818" points="762,455.04,766,446.04,762,450.04,758,446.04,762,455.04" style="stroke:#181818;stroke-width:1;"/><text fill="#000000" font-family="sans-serif" font-size="13" lengthAdjust="spacing" textLength="88.0483" x="648.0955" y="438.9684">cross-domain</text><text fill="#000000" font-family="sans-serif" font-size="13" lengthAdjust="spacing" textLength="138.2393" x="623" y="454.2789">komunikace p&#345;es port</text></g><!--link M_JOBS to PORTS--><g class="link" data-entity-1="ent0008" data-entity-2="ent0012" data-link-type="dependency" data-source-line="41" id="lnk28"><path d="M956.93,395.83 C956.93,426.48 956.93,472.35 956.93,472.35 C956.93,472.35 920.99,472.35 876.01,472.35" fill="none" id="M_JOBS-to-PORTS" style="stroke:#181818;stroke-width:1;"/><polygon fill="#181818" points="870.01,472.35,879.01,476.35,875.01,472.35,879.01,468.35,870.01,472.35" style="stroke:#181818;stroke-width:1;"/></g><!--link M_INT to PORTS--><g class="link" data-entity-1="ent0009" data-entity-2="ent0012" data-link-type="dependency" data-source-line="42" id="lnk29"><path d="M1342.35,395.66 C1342.35,431.13 1342.35,489.35 1342.35,489.35 C1342.35,489.35 1043.63,489.35 875.8,489.35" fill="none" id="M_INT-to-PORTS" style="stroke:#181818;stroke-width:1;"/><polygon fill="#181818" points="869.8,489.35,878.8,493.35,874.8,489.35,878.8,485.35,869.8,489.35" style="stroke:#181818;stroke-width:1;"/></g><!--link M_EMP to PORTS--><g class="link" data-entity-1="ent0010" data-entity-2="ent0012" data-link-type="dependency" data-source-line="43" id="lnk30"><path d="M245.25,395.66 C245.25,431.13 245.25,489.35 245.25,489.35 C245.25,489.35 496.5,489.35 647.99,489.35" fill="none" id="M_EMP-to-PORTS" style="stroke:#181818;stroke-width:1;"/><polygon fill="#181818" points="653.99,489.35,644.99,485.35,648.99,489.35,644.99,493.35,653.99,489.35" style="stroke:#181818;stroke-width:1;"/></g><!--link M_OTHER to PORTS--><g class="link" data-entity-1="ent0011" data-entity-2="ent0012" data-link-type="dependency" data-source-line="44" id="lnk31"><path d="M571.19,395.83 C571.19,426.48 571.19,472.35 571.19,472.35 C571.19,472.35 604.87,472.35 648.05,472.35" fill="none" id="M_OTHER-to-PORTS" style="stroke:#181818;stroke-width:1;"/><polygon fill="#181818" points="654.05,472.35,645.05,468.35,649.05,472.35,645.05,476.35,654.05,472.35" style="stroke:#181818;stroke-width:1;"/></g><!--link PORTS to ADB--><g class="link" data-entity-1="ent0012" data-entity-2="ent0014" data-link-type="dependency" data-source-line="46" id="lnk32"><path d="M654.12,507.35 C530,507.35 343.1,507.35 343.1,507.35 C343.1,507.35 343.1,570.6 343.1,610.09" fill="none" id="PORTS-to-ADB" style="stroke:#181818;stroke-width:1;"/><polygon fill="#181818" points="343.1,616.09,347.1,607.09,343.1,611.09,339.1,607.09,343.1,616.09" style="stroke:#181818;stroke-width:1;"/></g><!--link PORTS to AOBJ--><g class="link" data-entity-1="ent0012" data-entity-2="ent0015" data-link-type="dependency" data-source-line="47" id="lnk33"><path d="M654.15,524.35 C575.27,524.35 482,524.35 482,524.35 C482,524.35 482,575 482,609.97" fill="none" id="PORTS-to-AOBJ" style="stroke:#181818;stroke-width:1;"/><polygon fill="#181818" points="482,615.97,486,606.97,482,610.97,478,606.97,482,615.97" style="stroke:#181818;stroke-width:1;"/></g><!--link PORTS to AMQ--><g class="link" data-entity-1="ent0012" data-entity-2="ent0016" data-link-type="dependency" data-source-line="48" id="lnk34"><path d="M697.36,541.74 C697.36,565.84 697.36,589.08 697.36,609.91" fill="none" id="PORTS-to-AMQ" style="stroke:#181818;stroke-width:1;"/><polygon fill="#181818" points="697.36,615.91,701.36,606.91,697.36,610.91,693.36,606.91,697.36,615.91" style="stroke:#181818;stroke-width:1;"/></g><!--link PORTS to AEMAIL--><g class="link" data-entity-1="ent0012" data-entity-2="ent0017" data-link-type="dependency" data-source-line="49" id="lnk35"><path d="M822.45,541.74 C822.45,565.84 822.45,589.08 822.45,609.91" fill="none" id="PORTS-to-AEMAIL" style="stroke:#181818;stroke-width:1;"/><polygon fill="#181818" points="822.45,615.91,826.45,606.91,822.45,610.91,818.45,606.91,822.45,615.91" style="stroke:#181818;stroke-width:1;"/></g><!--link PORTS to AAUDIT--><g class="link" data-entity-1="ent0012" data-entity-2="ent0018" data-link-type="dependency" data-source-line="50" id="lnk36"><path d="M869.99,524.35 C959.45,524.35 1072,524.35 1072,524.35 C1072,524.35 1072,575 1072,609.97" fill="none" id="PORTS-to-AAUDIT" style="stroke:#181818;stroke-width:1;"/><polygon fill="#181818" points="1072,615.97,1076,606.97,1072,610.97,1068,606.97,1072,615.97" style="stroke:#181818;stroke-width:1;"/></g><!--link PORTS to AOUTBOX--><g class="link" data-entity-1="ent0012" data-entity-2="ent0019" data-link-type="dependency" data-source-line="51" id="lnk37"><path d="M869.9,507.35 C1006.27,507.35 1223.45,507.35 1223.45,507.35 C1223.45,507.35 1223.45,570.6 1223.45,610.09" fill="none" id="PORTS-to-AOUTBOX" style="stroke:#181818;stroke-width:1;"/><polygon fill="#181818" points="1223.45,616.09,1227.45,607.09,1223.45,611.09,1219.45,607.09,1223.45,616.09" style="stroke:#181818;stroke-width:1;"/></g><!--link DI to M_APP--><g class="link" data-entity-1="ent0020" data-entity-2="ent0007" data-link-type="dependency" data-source-line="53" id="lnk38"><path d="M644.25,224.69 C644.25,259.12 644.25,304.96 644.25,336.21" fill="none" id="DI-to-M_APP" style="stroke:#181818;stroke-width:1;stroke-dasharray:7,7;"/><polygon fill="#181818" points="644.25,342.21,648.25,333.21,644.25,337.21,640.25,333.21,644.25,342.21" style="stroke:#181818;stroke-width:1;"/><text fill="#000000" font-family="sans-serif" font-size="13" lengthAdjust="spacing" textLength="85.2109" x="556.8782" y="265.0184">injektuje port</text><text fill="#000000" font-family="sans-serif" font-size="13" lengthAdjust="spacing" textLength="88.4673" x="555.25" y="280.3289">implementace</text></g><!--link DI to M_JOBS--><g class="link" data-entity-1="ent0020" data-entity-2="ent0008" data-link-type="dependency" data-source-line="54" id="lnk39"><path d="M673.72,224.89 C673.72,255.62 673.72,295.35 673.72,295.35 C673.72,295.35 951.41,295.35 951.41,295.35 C951.41,295.35 951.41,314.95 951.41,335.95" fill="none" id="DI-to-M_JOBS" style="stroke:#181818;stroke-width:1;stroke-dasharray:7,7;"/><polygon fill="#181818" points="951.41,341.95,955.41,332.95,951.41,336.95,947.41,332.95,951.41,341.95" style="stroke:#181818;stroke-width:1;"/></g><!--link DI to M_INT--><g class="link" data-entity-1="ent0020" data-entity-2="ent0009" data-link-type="dependency" data-source-line="55" id="lnk40"><path d="M703.2,224.84 C703.2,237.33 703.2,248.35 703.2,248.35 C703.2,248.35 1352.46,248.35 1352.46,248.35 C1352.46,248.35 1352.46,300.65 1352.46,336.17" fill="none" id="DI-to-M_INT" style="stroke:#181818;stroke-width:1;stroke-dasharray:7,7;"/><polygon fill="#181818" points="1352.46,342.17,1356.46,333.17,1352.46,337.17,1348.46,333.17,1352.46,342.17" style="stroke:#181818;stroke-width:1;"/></g><!--link DI to M_EMP--><g class="link" data-entity-1="ent0020" data-entity-2="ent0010" data-link-type="dependency" data-source-line="56" id="lnk41"><path d="M580.99,189.35 C434.29,189.35 126.46,189.35 126.46,189.35 C126.46,189.35 126.46,285.95 126.46,336.05" fill="none" id="DI-to-M_EMP" style="stroke:#181818;stroke-width:1;stroke-dasharray:7,7;"/><polygon fill="#181818" points="126.46,342.05,130.46,333.05,126.46,337.05,122.46,333.05,126.46,342.05" style="stroke:#181818;stroke-width:1;"/></g><!--link DI to M_OTHER--><g class="link" data-entity-1="ent0020" data-entity-2="ent0011" data-link-type="dependency" data-source-line="57" id="lnk42"><path d="M589.49,224.77 C589.49,277.05 589.49,369.35 589.49,369.35 C589.49,369.35 592.08,369.35 586.34,369.35" fill="none" id="DI-to-M_OTHER" style="stroke:#181818;stroke-width:1;stroke-dasharray:7,7;"/><polygon fill="#181818" points="580.34,369.35,589.34,373.35,585.34,369.35,589.34,365.35,580.34,369.35" style="stroke:#181818;stroke-width:1;"/></g><?plantuml-src dLIzRYCt4ExtAGQkR1mi5-bI190i1ISdQwqb7HmWEXoevKYcTfTaIAvaNN1j7Y1TofGkKgUFa1V9asH8hjUxlYQNZiFXzytVDtHAWrEmLiwf2hWmc3kXP68B8JKph89II7H7ZQ2CUr0TXsPvmRQuSCSImUEOt9ROUM0V65S78RUmOQN596aGSFPskSnWRwpRipFuEO4NE9nD7hL1Qs6kQeTc9Nyq_W0SDqAA7E4DLAgMxlqPiEQHxHEaWlCI3ymWQA7Hvx-IvumUIYS-CgBuwqygPWisLvfS1d-gqJh8bNJuwBntpqh1wUL529BU9vywoOzLTNgIQdzwWjtfTsvKBA7rZoWzZXok8v-5Swug9YJbpUiIxKLytykPQLsAd4bdgM2VY55bYSRdOj7iHKpQe5PME6MEti8z5MHZ7z8FmonxJRfJw_zDTpCRBLxp2Qg7m7ZuZwpFNDFRvMigh7IfZeZM8oZF1MA1vWjv9-bd9Klbn8OQwJKSkFC75YQQxyFKDPhe-x98i-NRoPnYVUehBQELWCBJiC8TYTAQ_8fKRv1V1NQMEtkbwPLzJnAyxIONi1JiUkzFAtcZrfDgZPpJlZpx1eD1L60scoyNFH5c9NCRPIfv-WCOPzgTdcYCvpu1tRWkFbkjyIY-zMjrhhTUyJBkEsYboXXhE1xrKGlgX8_v0bqWEo3oRnTm1OklO9XD6-XiTDF7pjbwBLnwrm4FqxiCTBqkXNreOEdTgo-0rgNiG6uLHtz5awA0wJ9hS9DqEFs-3ntMNBWEj4tWdrz-1UQT7wBG6uhXk_5qsQUOrMwj7bj1l85xPOf0HWELbeM6iHAiu7Y9cmqXdzbcxvQZsGz-KDskJ-4x_nNiPAp_84hnU45gkLPL49hl_rofvaiRJvCaVcjmUVcD_tpI-tWAEzuQOKDRo-zOQ_Z5Q8setIIWmrKG4tmDkL7MNiQ_QIKBLTLI5Fvxr7__Hi6zR9COvWMMX4WzcuBrx12lSvF4UFx2IwjZURLqJ591nugpxLp4INNXiTa9zNSmQDf3PGcvmyBLEmmLhAIWhmOh6ZcLzl8sTA-rVFTQmtUlDMBt_WK0?></g></svg>