<?plantuml 1.2026.1?><svg xmlns="http://www.w3.org/2000/svg" xmlns:xlink="http://www.w3.org/1999/xlink" contentStyleType="text/css" data-diagram-type="DESCRIPTION" height="654px" preserveAspectRatio="none" style="width:982px;height:654px;background:#FFFFFF;" version="1.1" viewBox="0 0 982 654" width="982px" zoomAndPan="magnify"><defs/><g><!--cluster Prezenta?n? vrstva--><g class="cluster" data-qualified-name="Prezenta.n. vrstva" data-source-line="6" id="ent0002"><rect fill="none" height="175" rx="2.5" ry="2.5" style="stroke:#181818;stroke-width:1;" width="171.41" x="7" y="256"/><text fill="#000000" font-family="sans-serif" font-size="14" font-weight="bold" lengthAdjust="spacing" textLength="133.335" x="26.0375" y="271.5352">Prezenta&#269;n&#237; vrstva</text></g><!--cluster Aplika?n? vrstva--><g class="cluster" data-qualified-name="Aplika.n. vrstva" data-source-line="11" id="ent0005"><rect fill="none" height="87" rx="2.5" ry="2.5" style="stroke:#181818;stroke-width:1;" width="140.25" x="206.41" y="304"/><text fill="#000000" font-family="sans-serif" font-size="14" font-weight="bold" lengthAdjust="spacing" textLength="116.3887" x="218.3407" y="319.5352">Aplika&#269;n&#237; vrstva</text></g><!--cluster Datov? vrstva--><g class="cluster" data-qualified-name="Datov. vrstva" data-source-line="15" id="ent0007"><rect fill="none" height="202" rx="2.5" ry="2.5" style="stroke:#181818;stroke-width:1;" width="188.82" x="385.21" y="7"/><text fill="#000000" font-family="sans-serif" font-size="14" font-weight="bold" lengthAdjust="spacing" textLength="99.8936" x="429.6732" y="22.5352">Datov&#225; vrstva</text></g><!--cluster Integra?n? vrstva--><g class="cluster" data-qualified-name="Integra.n. vrstva" data-source-line="20" id="ent0010"><rect fill="none" height="148" rx="2.5" ry="2.5" style="stroke:#181818;stroke-width:1;" width="209.93" x="374.66" y="415"/><text fill="#000000" font-family="sans-serif" font-size="14" font-weight="bold" lengthAdjust="spacing" textLength="122.1514" x="418.5493" y="430.5352">Integra&#269;n&#237; vrstva</text></g><!--cluster AINode--><g class="cluster" data-qualified-name="AINode" data-source-line="25" id="ent0013"><polygon fill="none" points="612.59,468,622.59,458,965.31,458,965.31,627,955.31,637,612.59,637,612.59,468" style="stroke:#181818;stroke-width:1;"/><line style="stroke:#181818;stroke-width:1;" x1="955.31" x2="965.31" y1="468" y2="458"/><line style="stroke:#181818;stroke-width:1;" x1="612.59" x2="955.31" y1="468" y2="468"/><line style="stroke:#181818;stroke-width:1;" x1="955.31" x2="955.31" y1="468" y2="637"/><text fill="#000000" font-family="sans-serif" font-size="14" font-weight="bold" lengthAdjust="spacing" textLength="64.9209" x="752.4896" y="484.5352">AI server</text><text fill="#000000" font-family="sans-serif" font-size="14" font-weight="bold" lengthAdjust="spacing" textLength="114.3584" x="727.7708" y="501.0234">(separ&#225;tn&#237; host)</text></g><!--cluster Observability vrstva--><g class="cluster" data-qualified-name="Observability vrstva" data-source-line="31" id="ent0017"><rect fill="none" height="158" rx="2.5" ry="2.5" style="stroke:#181818;stroke-width:1;" width="366.39" x="394.04" y="233"/><text fill="#000000" font-family="sans-serif" font-size="14" font-weight="bold" lengthAdjust="spacing" textLength="146.002" x="504.234" y="248.5352">Observability vrstva</text></g><!--entity FE1--><g class="entity" data-qualified-name="Prezenta.n. vrstva.FE1" data-source-line="7" id="ent0003"><rect fill="#F1F1F1" height="36.4883" rx="2.5" ry="2.5" style="stroke:#181818;stroke-width:0.5;" width="117.4941" x="33.96" y="378.76"/><text fill="#000000" font-family="sans-serif" font-size="14" lengthAdjust="spacing" textLength="97.4941" x="43.96" y="402.2952">Kari&#233;rn&#237; port&#225;l</text></g><!--entity FE2--><g class="entity" data-qualified-name="Prezenta.n. vrstva.FE2" data-source-line="8" id="ent0004"><rect fill="#F1F1F1" height="52.9766" rx="2.5" ry="2.5" style="stroke:#181818;stroke-width:0.5;" width="139.4102" x="23" y="290.51"/><text fill="#000000" font-family="sans-serif" font-size="14" lengthAdjust="spacing" textLength="119.4102" x="33" y="314.0452">Intern&#237; HR/Admin</text><text fill="#000000" font-family="sans-serif" font-size="14" lengthAdjust="spacing" textLength="57.2373" x="33" y="330.5334">rozhran&#237;</text></g><!--entity API--><g class="entity" data-qualified-name="Aplika.n. vrstva.API" data-source-line="12" id="ent0006"><rect fill="#F1F1F1" height="36.4883" rx="2.5" ry="2.5" style="stroke:#181818;stroke-width:0.5;" width="108.2451" x="222.41" y="338.76"/><text fill="#000000" font-family="sans-serif" font-size="14" lengthAdjust="spacing" textLength="88.2451" x="232.41" y="362.2952">Aplika&#269;n&#237; API</text></g><!--entity DB--><g class="entity" data-qualified-name="Datov. vrstva.DB" data-source-line="16" id="ent0008"><path d="M412.3,157.26 C412.3,147.26 479.6228,147.26 479.6228,147.26 C479.6228,147.26 546.9455,147.26 546.9455,157.26 L546.9455,182.7483 C546.9455,192.7483 479.6228,192.7483 479.6228,192.7483 C479.6228,192.7483 412.3,192.7483 412.3,182.7483 L412.3,157.26" fill="#F1F1F1" style="stroke:#181818;stroke-width:0.5;"/><path d="M412.3,157.26 C412.3,167.26 479.6228,167.26 479.6228,167.26 C479.6228,167.26 546.9455,167.26 546.9455,157.26" fill="none" style="stroke:#181818;stroke-width:0.5;"/><text fill="#000000" font-family="sans-serif" font-size="14" lengthAdjust="spacing" textLength="114.6455" x="422.3" y="184.7952">Rela&#269;n&#237; datab&#225;ze</text></g><!--entity OBJ--><g class="entity" data-qualified-name="Datov. vrstva.OBJ" data-source-line="17" id="ent0009"><path d="M403.71,41.51 L444.71,41.51 A3.75,3.75 0 0 1 447.21,44.01 L454.21,62.51 L555.5303,62.51 A2.5,2.5 0 0 1 558.0303,65.01 L558.0303,109.9866 A2.5,2.5 0 0 1 555.5303,112.4866 L403.71,112.4866 A2.5,2.5 0 0 1 401.21,109.9866 L401.21,44.01 A2.5,2.5 0 0 1 403.71,41.51" fill="#F1F1F1" style="stroke:#181818;stroke-width:0.5;"/><line style="stroke:#181818;stroke-width:0.5;" x1="401.21" x2="454.21" y1="62.51" y2="62.51"/><text fill="#000000" font-family="sans-serif" font-size="14" lengthAdjust="spacing" textLength="126.8203" x="411.21" y="83.0452">Objektov&#233; &#250;lo&#382;i&#353;t&#283;</text><text fill="#000000" font-family="sans-serif" font-size="14" lengthAdjust="spacing" textLength="77.7656" x="411.21" y="99.5334">dokument&#367;</text></g><!--entity MQ--><g class="entity" data-qualified-name="Integra.n. vrstva.MQ" data-source-line="21" id="ent0011"><path d="M420.79,520.76 L538.4629,520.76 C543.4629,520.76 543.4629,534.0041 543.4629,534.0041 C543.4629,534.0041 543.4629,547.2483 538.4629,547.2483 L420.79,547.2483 C415.79,547.2483 415.79,534.0041 415.79,534.0041 C415.79,534.0041 415.79,520.76 420.79,520.76" fill="#F1F1F1" style="stroke:#181818;stroke-width:0.5;"/><path d="M538.4629,520.76 C533.4629,520.76 533.4629,534.0041 533.4629,534.0041 C533.4629,547.2483 538.4629,547.2483 538.4629,547.2483" fill="none" style="stroke:#181818;stroke-width:0.5;"/><text fill="#000000" font-family="sans-serif" font-size="14" lengthAdjust="spacing" textLength="107.6729" x="420.79" y="539.2952">Message broker</text></g><!--entity EXT--><g class="entity" data-qualified-name="Integra.n. vrstva.EXT" data-source-line="22" id="ent0012"><rect fill="#F1F1F1" height="36.4883" rx="2.5" ry="2.5" style="stroke:#181818;stroke-width:0.5;" width="177.9375" x="390.66" y="449.76"/><text fill="#000000" font-family="sans-serif" font-size="14" lengthAdjust="spacing" textLength="157.9375" x="400.66" y="473.2952">Extern&#237; integra&#269;n&#237; body</text></g><!--entity CVP--><g class="entity" data-qualified-name="AINode.CVP" data-source-line="26" id="ent0014"><rect fill="#F1F1F1" height="36.4883" rx="2.5" ry="2.5" style="stroke:#181818;stroke-width:0.5;" width="109.2295" x="632.22" y="513.76"/><text fill="#000000" font-family="sans-serif" font-size="14" lengthAdjust="spacing" textLength="89.2295" x="642.22" y="537.2952">cv-processor</text></g><!--entity JOBP--><g class="entity" data-qualified-name="AINode.JOBP" data-source-line="27" id="ent0015"><rect fill="#F1F1F1" height="36.4883" rx="2.5" ry="2.5" style="stroke:#181818;stroke-width:0.5;" width="116.4824" x="628.59" y="584.76"/><text fill="#000000" font-family="sans-serif" font-size="14" lengthAdjust="spacing" textLength="96.4824" x="638.59" y="608.2952">job-processor</text></g><!--entity OLLAMA--><g class="entity" data-qualified-name="AINode.OLLAMA" data-source-line="28" id="ent0016"><rect fill="#F1F1F1" height="52.9766" rx="2.5" ry="2.5" style="stroke:#181818;stroke-width:0.5;" width="144.2363" x="805.08" y="541.51"/><text fill="#000000" font-family="sans-serif" font-size="14" lengthAdjust="spacing" textLength="47.5029" x="815.08" y="565.0452">Ollama</text><text fill="#000000" font-family="sans-serif" font-size="14" lengthAdjust="spacing" textLength="124.2363" x="815.08" y="581.5334">NVIDIA A10 24 GB</text></g><!--entity PM--><g class="entity" data-qualified-name="Observability vrstva.PM" data-source-line="32" id="ent0018"><rect fill="#F1F1F1" height="36.4883" rx="2.5" ry="2.5" style="stroke:#181818;stroke-width:0.5;" width="139.1641" x="410.04" y="338.76"/><text fill="#000000" font-family="sans-serif" font-size="14" lengthAdjust="spacing" textLength="119.1641" x="420.04" y="362.2952">Metrick&#253; backend</text></g><!--entity LOG--><g class="entity" data-qualified-name="Observability vrstva.LOG" data-source-line="33" id="ent0019"><rect fill="#F1F1F1" height="36.4883" rx="2.5" ry="2.5" style="stroke:#181818;stroke-width:0.5;" width="129.5801" x="414.83" y="267.76"/><text fill="#000000" font-family="sans-serif" font-size="14" lengthAdjust="spacing" textLength="109.5801" x="424.83" y="291.2952">Logov&#253; backend</text></g><!--entity GF--><g class="entity" data-qualified-name="Observability vrstva.GF" data-source-line="34" id="ent0020"><rect fill="#F1F1F1" height="52.9766" rx="2.5" ry="2.5" style="stroke:#181818;stroke-width:0.5;" width="115.1904" x="629.24" y="295.51"/><text fill="#000000" font-family="sans-serif" font-size="14" lengthAdjust="spacing" textLength="95.1904" x="639.24" y="319.0452">Dashboarding</text><text fill="#000000" font-family="sans-serif" font-size="14" lengthAdjust="spacing" textLength="64.1689" x="639.24" y="335.5334">a alerting</text></g><!--link FE1 to API--><g class="link" data-entity-1="ent0003" data-entity-2="ent0006" data-link-type="dependency" data-source-line="37" id="lnk21"><path d="M151.91,397 C196.26,397 249.31,397 249.31,397 C249.31,397 249.31,392.04 249.31,381.59" fill="none" id="FE1-to-API" style="stroke:#181818;stroke-width:1;"/><polygon fill="#181818" points="249.31,375.59,245.31,384.59,249.31,380.59,253.31,384.59,249.31,375.59" style="stroke:#181818;stroke-width:1;"/></g><!--link FE2 to API--><g class="link" data-entity-1="ent0004" data-entity-2="ent0006" data-link-type="dependency" data-source-line="38" id="lnk22"><path d="M157.31,343.59 C157.31,352.1 157.31,359.37 157.31,359.37 C157.31,359.37 184.71,359.37 216.16,359.37" fill="none" id="FE2-to-API" style="stroke:#181818;stroke-width:1;"/><polygon fill="#181818" points="222.16,359.37,213.16,355.37,217.16,359.37,213.16,363.37,222.16,359.37" style="stroke:#181818;stroke-width:1;"/></g><!--link API to DB--><g class="link" data-entity-1="ent0006" data-entity-2="ent0008" data-link-type="dependency" data-source-line="39" id="lnk23"><path d="M258.31,338.39 C258.31,291.09 258.31,170 258.31,170 C258.31,170 340.94,170 406.02,170" fill="none" id="API-to-DB" style="stroke:#181818;stroke-width:1;"/><polygon fill="#181818" points="412.02,170,403.02,166,407.02,170,403.02,174,412.02,170" style="stroke:#181818;stroke-width:1;"/></g><!--link API to OBJ--><g class="link" data-entity-1="ent0006" data-entity-2="ent0009" data-link-type="dependency" data-source-line="40" id="lnk24"><path d="M331.15,347.88 C366.25,347.88 405.31,347.88 405.31,347.88 C405.31,347.88 405.31,192.65 405.31,118.97" fill="none" id="API-to-OBJ" style="stroke:#181818;stroke-width:1;"/><polygon fill="#181818" points="405.31,112.97,401.31,121.97,405.31,117.97,409.31,121.97,405.31,112.97" style="stroke:#181818;stroke-width:1;"/></g><!--link API to MQ--><g class="link" data-entity-1="ent0006" data-entity-2="ent0011" data-link-type="dependency" data-source-line="41" id="lnk25"><path d="M303.31,381.61 C303.31,427.05 303.31,534 303.31,534 C303.31,534 359.06,534 409.47,534" fill="none" id="API-MQ" style="stroke:#181818;stroke-width:1;"/><polygon fill="#181818" points="303.31,375.61,299.31,384.61,303.31,380.61,307.31,384.61,303.31,375.61" style="stroke:#181818;stroke-width:1;"/><polygon fill="#181818" points="415.47,534,406.47,530,410.47,534,406.47,538,415.47,534" style="stroke:#181818;stroke-width:1;"/></g><!--link MQ to CVP--><g class="link" data-entity-1="ent0011" data-entity-2="ent0014" data-link-type="dependency" data-source-line="42" id="lnk26"><path d="M549.77,534 C577.94,534 598.68,534 625.73,534" fill="none" id="MQ-CVP" style="stroke:#181818;stroke-width:1;"/><polygon fill="#181818" points="543.77,534,552.77,538,548.77,534,552.77,530,543.77,534" style="stroke:#181818;stroke-width:1;"/><polygon fill="#181818" points="631.73,534,622.73,530,626.73,534,622.73,538,631.73,534" style="stroke:#181818;stroke-width:1;"/></g><!--link API to EXT--><g class="link" data-entity-1="ent0006" data-entity-2="ent0012" data-link-type="dependency" data-source-line="43" id="lnk27"><path d="M336.81,366.12 C368.51,366.12 396.31,366.12 396.31,366.12 C396.31,366.12 396.31,413.9 396.31,443.31" fill="none" id="API-EXT" style="stroke:#181818;stroke-width:1;"/><polygon fill="#181818" points="330.81,366.12,339.81,370.12,335.81,366.12,339.81,362.12,330.81,366.12" style="stroke:#181818;stroke-width:1;"/><polygon fill="#181818" points="396.31,449.31,400.31,440.31,396.31,444.31,392.31,440.31,396.31,449.31" style="stroke:#181818;stroke-width:1;"/></g><!--link API to JOBP--><g class="link" data-entity-1="ent0006" data-entity-2="ent0015" data-link-type="dependency" data-source-line="44" id="lnk28"><path d="M276.31,381.49 C276.31,438.7 276.31,603 276.31,603 C276.31,603 509.11,603 622.45,603" fill="none" id="API-JOBP" style="stroke:#181818;stroke-width:1;"/><polygon fill="#181818" points="276.31,375.49,272.31,384.49,276.31,380.49,280.31,384.49,276.31,375.49" style="stroke:#181818;stroke-width:1;"/><polygon fill="#181818" points="628.45,603,619.45,599,623.45,603,619.45,607,628.45,603" style="stroke:#181818;stroke-width:1;"/></g><!--link CVP to OLLAMA--><g class="link" data-entity-1="ent0014" data-entity-2="ent0016" data-link-type="dependency" data-source-line="45" id="lnk29"><path d="M741.89,545.88 C761.55,545.88 778,545.88 798.89,545.88" fill="none" id="CVP-to-OLLAMA" style="stroke:#181818;stroke-width:1;"/><polygon fill="#181818" points="804.89,545.88,795.89,541.88,799.89,545.88,795.89,549.88,804.89,545.88" style="stroke:#181818;stroke-width:1;"/></g><!--link JOBP to OLLAMA--><g class="link" data-entity-1="ent0015" data-entity-2="ent0016" data-link-type="dependency" data-source-line="46" id="lnk30"><path d="M745.5,589.62 C764.18,589.62 779.07,589.62 798.62,589.62" fill="none" id="JOBP-to-OLLAMA" style="stroke:#181818;stroke-width:1;"/><polygon fill="#181818" points="804.62,589.62,795.62,585.62,799.62,589.62,795.62,593.62,804.62,589.62" style="stroke:#181818;stroke-width:1;"/></g><!--link API to PM--><g class="link" data-entity-1="ent0006" data-entity-2="ent0018" data-link-type="dependency" data-source-line="48" id="lnk31"><path d="M330.96,357 C355.16,357 377.96,357 403.73,357" fill="none" id="API-to-PM" style="stroke:#181818;stroke-width:1;stroke-dasharray:7,7;"/><polygon fill="#181818" points="409.73,357,400.73,353,404.73,357,400.73,361,409.73,357" style="stroke:#181818;stroke-width:1;"/><text fill="#000000" font-family="sans-serif" font-size="13" lengthAdjust="spacing" textLength="47.709" x="322.34" y="370.5684">metriky</text></g><!--link API to LOG--><g class="link" data-entity-1="ent0006" data-entity-2="ent0019" data-link-type="dependency" data-source-line="49" id="lnk32"><path d="M294.31,338.46 C294.31,320.96 294.31,297.38 294.31,297.38 C294.31,297.38 355.15,297.38 408.55,297.38" fill="none" id="API-to-LOG" style="stroke:#181818;stroke-width:1;stroke-dasharray:7,7;"/><polygon fill="#181818" points="414.55,297.38,405.55,293.38,409.55,297.38,405.55,301.38,414.55,297.38" style="stroke:#181818;stroke-width:1;"/><text fill="#000000" font-family="sans-serif" font-size="13" lengthAdjust="spacing" textLength="26.6411" x="334.89" y="310.9484">logy</text></g><!--link PM to GF--><g class="link" data-entity-1="ent0018" data-entity-2="ent0020" data-link-type="dependency" data-source-line="50" id="lnk33"><path d="M549.49,343.62 C575.33,343.62 598.33,343.62 622.99,343.62" fill="none" id="PM-to-GF" style="stroke:#181818;stroke-width:1;"/><polygon fill="#181818" points="628.99,343.62,619.99,339.62,623.99,343.62,619.99,347.62,628.99,343.62" style="stroke:#181818;stroke-width:1;"/></g><!--link LOG to GF--><g class="link" data-entity-1="ent0019" data-entity-2="ent0020" data-link-type="dependency" data-source-line="51" id="lnk34"><path d="M544.9,299.88 C571.83,299.88 596.78,299.88 622.89,299.88" fill="none" id="LOG-to-GF" style="stroke:#181818;stroke-width:1;"/><polygon fill="#181818" points="628.89,299.88,619.89,295.88,623.89,299.88,619.89,303.88,628.89,299.88" style="stroke:#181818;stroke-width:1;"/></g><?plantuml-src VLB1RjD04BtxAqOvmI65LfmGgkIGDBZ4TLfGnI6NTJonjzxiclKsu5Hy0b_0ASSU47SakBZvBsRN8TWHSB0yE_FcpSoR4RWmO1HedcO64gvnRhYINfbpMJ3DbY2uH5CL24gRJBK21PldBCKtfX88De_9L60BK6OiKH-uJ671H8cUjyk0tbJZ6gLX3vzb_HLMkZGhreCx3_xmGEyrqxo-rnPHKErw8th0IZWR7NTnWJJeKA-kdlZ9aikPr6gTQKQ-NSQ9zwbLtIy4p_zVkmtnfu6ZeN-7PiYCMjMR3aN238jPIT4h5BjyvwitQtGimm715aeagA4NnJUOMvPxgByBjVt9jnlpy6Kc4vNVBacXxJUN50tEEwNjoAd-omZlR_6MuY6MfGN6MkMe7KLusPrmz76d6czpnIgf77pqxgsjA5LYrGYWHBr2FPEFIgJbrXjZqPagpUD6c-328WzKdA_wXLPpQaOrJRoyddOHDoe-W9n7WmDC90HRifcyk0w6WG_-yLCuUGRZGQFCPEA7VaUSABRDifWBRgf_BJX4e_ayhtz0J7ae4ySs3RkeYKffELtC91ftGKDMPh5YEg5Bdqa6JA0sP3lq-CpsHZSB_VwfEo6wnhrDdxFfA7wRTjNMVc4VjBJmiZ6jT7k_tSx-uHIZS9FUw65zxRT37nsTqeJm79Ps-BpQEsaayWgLLXx5RHgrRPsD-Gi0?></g></svg>